<?xml version="1.0" encoding="utf-8"?>
<!-- Generator: Adobe Illustrator 25.0.0, SVG Export Plug-In . SVG Version: 6.00 Build 0)  -->
<svg version="1.1" id="Camada_1" xmlns="http://www.w3.org/2000/svg" xmlns:xlink="http://www.w3.org/1999/xlink" x="0px" y="0px"
	 viewBox="0 0 1500 200" style="enable-background:new 0 0 1500 200;" xml:space="preserve">
<style type="text/css">
	.st0{fill:#504F4F;}
	.st1{fill:#DB911A;}
</style>
<g>
	<path class="st0" d="M99.08,183.28H0.58V16.09h35.76v138.05h62.74V183.28z"/>
	<path class="st0" d="M252.83,111.4c0,49.87-23.26,74.8-69.78,74.8c-44.93,0-67.4-24.29-67.4-72.86V16.09h35.86v97.47
		c0,27.85,11.02,41.77,33.05,41.77c21.67,0,32.51-13.42,32.51-40.26V16.09h35.76V111.4z"/>
	<path class="st0" d="M325.32,16.09v167.2h-35.76V16.09H325.32z"/>
	<path class="st0" d="M356.41,141.19c13.51,11.16,28.86,16.73,46.05,16.73c9.75,0,17.08-1.67,22-5.02c4.91-3.35,7.37-7.64,7.37-12.9
		c0-4.53-1.95-8.81-5.85-12.85c-3.9-4.03-14.19-9.5-30.88-16.41c-26.22-11.08-39.33-27.2-39.33-48.36
		c0-15.54,5.94-27.61,17.82-36.21c11.88-8.6,27.61-12.9,47.19-12.9c16.4,0,30.16,2.12,41.28,6.37v33.46
		c-11.27-7.63-24.45-11.44-39.55-11.44c-8.81,0-15.86,1.6-21.13,4.8c-5.27,3.2-7.91,7.5-7.91,12.9c0,4.32,1.81,8.29,5.42,11.93
		c3.61,3.63,12.53,8.55,26.76,14.73c16.69,7.12,28.15,14.64,34.4,22.56c6.25,7.92,9.37,17.34,9.37,28.28
		c0,16.05-5.71,28.28-17.12,36.7c-11.41,8.42-27.63,12.63-48.65,12.63c-19.22,0-34.96-3.09-47.24-9.28V141.19z"/>
	<path class="st1" d="M631.73,183.28h-23.95l-17.12-45.77h-69.89l-16.14,45.77h-23.95l63.93-167.2h23.19L631.73,183.28z
		 M583.95,118.63L558.6,49.11c-0.8-2.23-1.66-6.12-2.6-11.66h-0.54c-0.8,5.04-1.7,8.92-2.71,11.66l-25.14,69.51H583.95z"/>
	<path class="st1" d="M744.53,183.28h-88.52V16.09h21.67v148.09h66.85V183.28z"/>
	<path class="st1" d="M860.14,183.28h-90.26V16.09h86.46V35.3h-64.79v53.54h60.03v19.11h-60.03v56.24h68.59V183.28z"/>
	<path class="st1" d="M1028.95,183.28h-25.68L918.87,53.22c-2.38-3.67-4.3-7.3-5.74-10.9h-0.65c0.58,3.74,0.87,11.55,0.87,23.42
		v117.54h-21.45V16.09h27.2l82.13,127.8c3.9,6.04,6.21,9.89,6.93,11.55h0.43c-0.72-4.75-1.08-12.88-1.08-24.39V16.09h21.45V183.28z"
		/>
	<path class="st1" d="M1187.15,176.37c-12.35,6.48-27.85,9.72-46.48,9.72c-24.05,0-43.27-7.61-57.64-22.83
		c-14.37-15.22-21.56-35.35-21.56-60.39c0-26.91,8.09-48.57,24.27-64.98c16.18-16.41,36.73-24.61,61.65-24.61
		c16.04,0,29.29,2.27,39.77,6.8v22.56c-11.99-6.62-25.18-9.93-39.55-9.93c-18.71,0-33.95,6.21-45.72,18.62
		c-11.77,12.41-17.66,29.16-17.66,50.25c0,20.01,5.49,35.89,16.47,47.66c10.98,11.76,25.35,17.65,43.12,17.65
		c16.61,0,31.06-3.74,43.34-11.22V176.37z"/>
	<path class="st1" d="M1352.6,183.28h-23.95l-17.12-45.77h-69.89l-16.14,45.77h-23.95l63.93-167.2h23.19L1352.6,183.28z
		 M1304.82,118.63l-25.35-69.51c-0.8-2.23-1.66-6.12-2.6-11.66h-0.54c-0.79,5.04-1.7,8.92-2.71,11.66l-25.14,69.51H1304.82z"/>
	<path class="st1" d="M1499.42,183.28h-25.57L1446,136.87c-5.56-9.28-10.66-15.6-15.28-18.94c-4.62-3.35-10.15-5.02-16.58-5.02
		h-15.6v70.38h-21.67V16.09h51.14c16.32,0,29.11,3.92,38.36,11.77c9.24,7.84,13.87,18.82,13.87,32.92
		c0,23.17-12.42,38.21-37.27,45.12v0.54c4.62,1.94,8.61,4.71,11.97,8.31c3.36,3.6,7.71,9.75,13.06,18.46L1499.42,183.28z
		 M1398.54,34.97v59.04h25.57c9.9,0,17.93-2.88,24.11-8.63c6.18-5.76,9.26-13.31,9.26-22.67c0-8.71-2.82-15.51-8.45-20.4
		c-5.63-4.89-13.83-7.34-24.59-7.34H1398.54z"/>
</g>
</svg>
